<svg width="436" height="184" viewBox="0 0 436 184" fill="none" xmlns="http://www.w3.org/2000/svg">
<path d="M332.922 78.8865C338.896 88.3621 336.098 92.9626 333.952 94.0783C345.075 97.7862 346.826 108.326 346.312 113.132C347.857 109.785 348.938 101.288 340.904 94.0783C341.763 91.5035 341.368 84.8603 332.922 78.8865Z" fill="#F6F6F6"/>
<path d="M327.772 97.1682C326.056 96.5674 321.335 93.3059 316.186 85.0662C309.916 75.0349 305.845 71.3542 304.923 71.1693C304.89 71.1512 304.868 71.1495 304.856 71.1619C304.876 71.1619 304.899 71.1643 304.923 71.1693C305.346 71.4022 307.559 74.3605 313.868 85.0662C320.666 96.6017 325.97 97.9407 327.772 97.1682Z" fill="#F6F6F6"/>
<path d="M341.677 147.378C348.681 142.847 351.462 134.161 351.976 130.384C352.405 136.993 349.401 151.035 333.952 154.331C337.471 148.065 341.234 132.535 332.15 123.69C322.365 114.162 308.718 109.785 298.161 107.725C300.135 107.983 304.856 107.983 308.976 107.983C313.096 107.983 318.932 106.609 321.335 105.923C320.563 109.27 322.108 111.073 323.653 111.33C325.389 111.619 327.515 111.33 328.545 112.103C329.918 113.132 330.965 114.935 330.347 118.025C335.24 121.115 344.355 131.311 341.677 147.378Z" fill="#F6F6F6"/>
<path d="M336.27 136.049C335.669 130.213 329.008 117.355 307.173 112.618C324.065 118.797 333.609 130.813 336.27 136.049Z" fill="#F6F6F6"/>
<path d="M307.688 82.2339C314.641 94.0783 322.194 98.1982 324.683 98.1982C322.966 98.7131 318.245 98.7131 313.868 94.0783C312.166 92.2759 308.409 90.7825 304.084 93.0484C298.676 95.8808 295.071 95.1083 293.527 93.5634C307.431 90.4735 298.805 82.7489 298.934 84.0363C299.243 87.1262 295.203 90.5945 291.724 87.3836C288.377 84.2938 291.467 80.4315 293.527 79.659C294.814 78.8865 293.321 75.9512 290.437 76.5691C289.407 77.7707 287.244 81.1524 286.832 85.0662C286.403 83.3497 285.956 79.1955 287.604 76.3116C276.275 77.8518 271.726 71.2886 270.868 67.8145C272.756 70.1319 278.592 74.2935 283.484 72.7068C291.106 70.2349 294.556 70.5533 297.646 71.6768C299.535 72.3635 303.981 75.2302 307.688 82.2339Z" fill="#F6F6F6"/>
<path d="M278.335 61.3773C290.694 60.7593 302.195 64.8963 306.401 67.0421C303.483 63.6947 293.784 57 278.335 57C262.885 57 249.753 64.7247 245.119 68.587C251.041 66.4412 265.975 61.9953 278.335 61.3773Z" fill="#F6F6F6"/>
<path d="M231.729 81.7189C241.411 70.3894 257.564 69.9603 264.43 71.1619C238.887 74.4577 224.262 96.2241 220.142 106.695C219.971 103.09 222.048 93.0484 231.729 81.7189Z" fill="#F6F6F6"/>
<path d="M288.119 92.0184C295.947 97.9922 306.143 96.2241 310.263 94.5933C306.744 97.4257 297.131 101.237 286.832 93.8209C273.957 84.5513 272.155 83.2638 269.065 82.2339C277.047 82.2339 278.335 84.5513 288.119 92.0184Z" fill="#F6F6F6"/>
<path d="M256.448 92.5334C271.074 92.3274 281.768 100.687 285.287 104.893C277.047 99.7431 269.065 96.6532 256.448 96.3957C246.355 96.1897 233.875 99.9147 228.897 101.803C231.987 98.799 241.823 92.7394 256.448 92.5334Z" fill="#F6F6F6"/>
<path d="M228.897 107.983C250.526 96.8592 284.085 108.326 298.161 115.45C283.742 110.043 250.732 102.472 234.047 115.45C223.747 122.454 220.486 136.564 220.142 142.744C214.478 125.492 221.945 112.103 228.897 107.983Z" fill="#F6F6F6"/>
<path d="M232.502 131.414C248.981 107.931 292.239 117.338 311.808 124.977C293.698 120.685 254.8 117.252 244.089 137.851C236.125 153.713 242.487 166.776 246.664 171.325C237.222 165.253 221.172 148.771 232.502 131.414Z" fill="#F6F6F6"/>
<path d="M258.766 142.744C268.447 120.909 306.058 128.153 323.653 134.504C307.688 130.127 280.137 130.384 270.868 148.408C263.452 162.828 272.756 177.762 278.335 183.427C267.778 178.964 249.084 164.579 258.766 142.744Z" fill="#F6F6F6"/>
<path d="M281.682 156.391C281.682 142.744 295.157 138.281 302.796 137.079C297.732 139.654 289.664 147.139 289.664 157.163C289.664 165.145 291.724 172.612 308.976 178.792C294.299 180.594 281.682 172.2 281.682 156.391Z" fill="#F6F6F6"/>
<path d="M100.093 78.8865C94.1189 88.3621 96.9169 92.9626 99.0627 94.0783C87.9393 97.7862 86.1882 108.326 86.703 113.132C85.1581 109.785 84.0767 101.288 92.1104 94.0783C91.2521 91.5035 91.6471 84.8603 100.093 78.8865Z" fill="#F6F6F6"/>
<path d="M105.242 97.1682C106.959 96.5674 111.679 93.3059 116.829 85.0662C123.099 75.0349 127.17 71.3542 128.091 71.1693C128.124 71.1512 128.146 71.1495 128.159 71.1619C128.139 71.1619 128.116 71.1643 128.091 71.1693C127.669 71.4022 125.455 74.3605 119.147 85.0662C112.349 96.6017 107.045 97.9407 105.242 97.1682Z" fill="#F6F6F6"/>
<path d="M91.3378 147.378C84.3339 142.847 81.5531 134.161 81.0382 130.384C80.6093 136.993 83.6136 151.035 99.0627 154.331C95.5436 148.065 91.7802 132.535 100.865 123.69C110.649 114.162 124.296 109.785 134.853 107.725C132.879 107.983 128.159 107.983 124.039 107.983C119.919 107.983 114.083 106.609 111.679 105.923C112.452 109.27 110.907 111.073 109.362 111.33C107.626 111.619 105.5 111.33 104.47 112.103C103.096 113.132 102.049 114.935 102.667 118.025C97.775 121.115 88.6599 131.311 91.3378 147.378Z" fill="#F6F6F6"/>
<path d="M96.745 136.049C97.3458 130.213 104.006 117.355 125.841 112.618C108.95 118.797 99.4057 130.813 96.745 136.049Z" fill="#F6F6F6"/>
<path d="M125.326 82.2339C118.374 94.0783 110.821 98.1982 108.332 98.1982C110.049 98.7131 114.769 98.7131 119.147 94.0783C120.849 92.2759 124.605 90.7825 128.931 93.0484C134.338 95.8808 137.943 95.1083 139.488 93.5634C125.584 90.4735 134.21 82.7489 134.081 84.0363C133.772 87.1262 137.812 90.5945 141.291 87.3836C144.638 84.2938 141.548 80.4315 139.488 79.659C138.201 78.8865 139.694 75.9512 142.578 76.5691C143.608 77.7707 145.771 81.1524 146.183 85.0662C146.612 83.3497 147.058 79.1955 145.41 76.3116C156.74 77.8518 161.289 71.2886 162.147 67.8145C160.259 70.1319 154.422 74.2935 149.53 72.7068C141.909 70.2349 138.458 70.5533 135.368 71.6768C133.48 72.3635 129.034 75.2302 125.326 82.2339Z" fill="#F6F6F6"/>
<path d="M154.68 61.3773C142.32 60.7593 130.819 64.8963 126.614 67.0421C129.532 63.6947 139.231 57 154.68 57C170.129 57 183.261 64.7247 187.896 68.587C181.974 66.4412 167.039 61.9953 154.68 61.3773Z" fill="#F6F6F6"/>
<path d="M201.285 81.7189C191.604 70.3894 175.451 69.9603 168.584 71.1619C194.127 74.4577 208.753 96.2241 212.872 106.695C213.044 103.09 210.967 93.0484 201.285 81.7189Z" fill="#F6F6F6"/>
<path d="M144.895 92.0184C137.068 97.9922 126.871 96.2241 122.751 94.5933C126.27 97.4257 135.883 101.237 146.183 93.8209C159.057 84.5513 160.86 83.2638 163.95 82.2339C155.967 82.2339 154.68 84.5513 144.895 92.0184Z" fill="#F6F6F6"/>
<path d="M176.566 92.5334C161.941 92.3274 151.247 100.687 147.728 104.893C155.967 99.7431 163.95 96.6532 176.566 96.3957C186.66 96.1897 199.14 99.9147 204.118 101.803C201.028 98.799 191.192 92.7394 176.566 92.5334Z" fill="#F6F6F6"/>
<path d="M204.118 107.983C182.489 96.8592 148.929 108.326 134.853 115.45C149.273 110.043 182.283 102.472 198.968 115.45C209.267 122.454 212.529 136.564 212.872 142.744C218.537 125.492 211.07 112.103 204.118 107.983Z" fill="#F6F6F6"/>
<path d="M200.513 131.414C184.034 107.931 140.776 117.338 121.206 124.977C139.316 120.685 178.214 117.252 188.926 137.851C196.89 153.713 190.528 166.776 186.351 171.325C195.792 165.253 211.842 148.771 200.513 131.414Z" fill="#F6F6F6"/>
<path d="M174.249 142.744C164.567 120.909 126.957 128.153 109.362 134.504C125.326 130.127 152.878 130.384 162.147 148.408C169.563 162.828 160.259 177.762 154.68 183.427C165.237 178.964 183.931 164.579 174.249 142.744Z" fill="#F6F6F6"/>
<path d="M151.333 156.391C151.333 142.744 137.857 138.281 130.219 137.079C135.282 139.654 143.35 147.139 143.35 157.163C143.35 165.145 141.291 172.612 124.039 178.792C138.716 180.594 151.333 172.2 151.333 156.391Z" fill="#F6F6F6"/>
<path d="M0.761719 28V24.4844H2.24609C3.28776 24.4844 3.95182 24.3542 4.23828 24.0938C4.53776 23.8333 4.6875 23.1888 4.6875 22.1602V7.00391C4.6875 5.96224 4.53776 5.31771 4.23828 5.07031C3.95182 4.8099 3.28776 4.67969 2.24609 4.67969H0.761719V1.16406H27.2852V11.3984H23.7695C23.5482 9.83594 23.2878 8.65755 22.9883 7.86328C22.6888 7.05599 22.2917 6.42448 21.7969 5.96875C21.3021 5.5 20.6641 5.16797 19.8828 4.97266C19.1016 4.77734 17.7018 4.67969 15.6836 4.67969H12.207V12.3164H12.8711C14.3555 12.3164 15.3451 12.0365 15.8398 11.4766C16.3477 10.9167 16.6016 9.78385 16.6016 8.07812H19.9609V20.3242L16.6016 20.3047C16.5625 18.4427 16.3151 17.2318 15.8594 16.6719C15.4036 16.112 14.4076 15.832 12.8711 15.832H12.207V24.4844H15.8008C18.7435 24.4844 20.7292 23.9766 21.7578 22.9609C22.7995 21.9453 23.4701 19.9336 23.7695 16.9258H27.2852V28H0.761719ZM44.6883 15.8711L41.993 7.39453L39.2391 15.8711H44.6883ZM28.5945 28V24.4844H29.5711C30.4435 24.4844 31.0815 24.3477 31.4852 24.0742C31.8888 23.7878 32.2859 23.0586 32.6766 21.8867L39.5711 1.16406H47.5594L54.1609 22.0039C54.4995 23.0195 54.851 23.6901 55.2156 24.0156C55.5932 24.3281 56.1596 24.4844 56.9148 24.4844H58.282V28H43.4773V24.4844H44.6102C45.5737 24.4844 46.2182 24.4193 46.5438 24.2891C46.8823 24.1458 47.0516 23.8919 47.0516 23.5273C47.0385 23.4102 46.993 23.2214 46.9148 22.9609C46.8758 22.8307 46.8497 22.7331 46.8367 22.668L45.8016 19.3672H38.0867L37.0711 22.4531C37.019 22.6354 36.9734 22.8242 36.9344 23.0195C36.8953 23.2148 36.8758 23.3841 36.8758 23.5273C36.8758 23.8919 37.0125 24.1458 37.2859 24.2891C37.5594 24.4193 38.1453 24.4844 39.0438 24.4844H40.3523V28H28.5945ZM81.1539 28.2734L80.1578 26.2422C78.8297 27.1016 77.4625 27.7396 76.0563 28.1562C74.663 28.5859 73.2047 28.8008 71.6813 28.8008C67.5797 28.8008 64.318 27.5573 61.8961 25.0703C59.4872 22.5703 58.2828 19.1979 58.2828 14.9531C58.2828 10.6172 59.5328 7.10156 62.0328 4.40625C64.5458 1.71094 67.8141 0.363281 71.8375 0.363281C73.2958 0.363281 74.663 0.565104 75.9391 0.96875C77.2281 1.3724 78.4716 1.9974 79.6695 2.84375L80.3531 0.871094H84.025V11.6719H80.1969C79.9104 9.19792 79.2073 7.36198 78.0875 6.16406C76.9677 4.96615 75.3792 4.36719 73.3219 4.36719C71.2385 4.36719 69.663 5.1875 68.5953 6.82812C67.5276 8.46875 66.9938 10.8841 66.9938 14.0742C66.9938 17.8503 67.482 20.5911 68.4586 22.2969C69.4482 23.9896 71.0107 24.8359 73.1461 24.8359C74.6826 24.8359 75.7438 24.582 76.3297 24.0742C76.9286 23.5664 77.2281 22.6224 77.2281 21.2422V19.3672C77.2281 18.4036 77.1109 17.8177 76.8766 17.6094C76.6422 17.388 76.1214 17.2773 75.3141 17.2773H73.3609V13.7617H87.9898V17.2773H86.5641C85.8479 17.2773 85.3596 17.4076 85.0992 17.668C84.8388 17.9154 84.7086 18.3841 84.7086 19.0742V28.2734H81.1539ZM88.2055 1.16406H103.811V4.67969H102.131C101.064 4.67969 100.38 4.81641 100.08 5.08984C99.794 5.35026 99.6508 5.98828 99.6508 7.00391V24.4844H101.76C103.791 24.4844 105.198 24.3867 105.979 24.1914C106.76 23.9961 107.398 23.6641 107.893 23.1953C108.453 22.6745 108.883 21.9453 109.182 21.0078C109.495 20.0573 109.716 18.7357 109.846 17.043H113.362V28H88.2055V24.4844H89.6898C90.7315 24.4844 91.3956 24.3542 91.682 24.0938C91.9815 23.8333 92.1312 23.1888 92.1312 22.1602V7.00391C92.1312 5.96224 91.9815 5.31771 91.682 5.07031C91.3956 4.8099 90.7315 4.67969 89.6898 4.67969H88.2055V1.16406ZM115.101 28V24.4844H116.585C117.627 24.4844 118.291 24.3542 118.577 24.0938C118.877 23.8333 119.027 23.1888 119.027 22.1602V7.00391C119.027 5.96224 118.877 5.31771 118.577 5.07031C118.291 4.8099 117.627 4.67969 116.585 4.67969H115.101V1.16406H141.624V11.3984H138.109C137.887 9.83594 137.627 8.65755 137.327 7.86328C137.028 7.05599 136.631 6.42448 136.136 5.96875C135.641 5.5 135.003 5.16797 134.222 4.97266C133.441 4.77734 132.041 4.67969 130.023 4.67969H126.546V12.3164H127.21C128.695 12.3164 129.684 12.0365 130.179 11.4766C130.687 10.9167 130.941 9.78385 130.941 8.07812H134.3V20.3242L130.941 20.3047C130.902 18.4427 130.654 17.2318 130.198 16.6719C129.743 16.112 128.747 15.832 127.21 15.832H126.546V24.4844H130.14C133.083 24.4844 135.068 23.9766 136.097 22.9609C137.139 21.9453 137.809 19.9336 138.109 16.9258H141.624V28H115.101ZM167.602 12.2383H170.434C172.466 12.2383 173.846 11.9779 174.575 11.457C175.304 10.9232 175.669 9.97266 175.669 8.60547C175.669 7.17318 175.304 6.16406 174.575 5.57812C173.846 4.97917 172.57 4.67969 170.747 4.67969H167.602V12.2383ZM167.602 22.1602C167.602 23.1758 167.746 23.8203 168.032 24.0938C168.332 24.3542 169.015 24.4844 170.083 24.4844H171.509V28H156.157V24.4844H157.641C158.683 24.4844 159.347 24.3542 159.634 24.0938C159.933 23.8333 160.083 23.1888 160.083 22.1602V7.00391C160.083 5.96224 159.933 5.31771 159.634 5.07031C159.347 4.8099 158.683 4.67969 157.641 4.67969H156.157V1.16406H173.794C177.062 1.16406 179.49 1.71745 181.079 2.82422C182.68 3.91797 183.481 5.59115 183.481 7.84375C183.481 9.41927 182.954 10.7279 181.899 11.7695C180.845 12.7982 179.315 13.5013 177.309 13.8789C179.028 14.1654 180.252 14.7318 180.981 15.5781C181.71 16.4115 182.075 17.6484 182.075 19.2891V21.8867C182.075 23.0065 182.16 23.7682 182.329 24.1719C182.498 24.5625 182.798 24.7578 183.227 24.7578C183.735 24.7578 184.087 24.4648 184.282 23.8789C184.49 23.2799 184.595 22.1732 184.595 20.5586H187.27C187.27 20.6888 187.277 20.8711 187.29 21.1055C187.303 21.3268 187.309 21.4896 187.309 21.5938C187.309 24.0547 186.802 25.8711 185.786 27.043C184.783 28.2148 183.214 28.8008 181.079 28.8008C178.826 28.8008 177.173 28.2474 176.118 27.1406C175.076 26.0339 174.555 24.2956 174.555 21.9258V19.3672C174.555 17.8698 174.315 16.8932 173.833 16.4375C173.364 15.9818 172.381 15.7539 170.884 15.7539H167.602V22.1602ZM187.505 28V24.4844H188.99C190.032 24.4844 190.696 24.3542 190.982 24.0938C191.282 23.8333 191.431 23.1888 191.431 22.1602V7.00391C191.431 5.96224 191.282 5.31771 190.982 5.07031C190.696 4.8099 190.032 4.67969 188.99 4.67969H187.505V1.16406H214.029V11.3984H210.513C210.292 9.83594 210.032 8.65755 209.732 7.86328C209.433 7.05599 209.035 6.42448 208.541 5.96875C208.046 5.5 207.408 5.16797 206.627 4.97266C205.845 4.77734 204.446 4.67969 202.427 4.67969H198.951V12.3164H199.615C201.099 12.3164 202.089 12.0365 202.584 11.4766C203.091 10.9167 203.345 9.78385 203.345 8.07812H206.705V20.3242L203.345 20.3047C203.306 18.4427 203.059 17.2318 202.603 16.6719C202.147 16.112 201.151 15.832 199.615 15.832H198.951V24.4844H202.545C205.487 24.4844 207.473 23.9766 208.502 22.9609C209.543 21.9453 210.214 19.9336 210.513 16.9258H214.029V28H187.505ZM216.627 28V24.4844H218.112C219.153 24.4844 219.817 24.3542 220.104 24.0938C220.403 23.8333 220.553 23.1888 220.553 22.1602V7.00391C220.553 5.96224 220.403 5.31771 220.104 5.07031C219.817 4.8099 219.153 4.67969 218.112 4.67969H216.627V1.16406H241.784V12.1211H238.268C238.138 10.4154 237.916 9.08724 237.604 8.13672C237.304 7.1862 236.875 6.45052 236.315 5.92969C235.846 5.47396 235.234 5.15495 234.479 4.97266C233.724 4.77734 232.291 4.67969 230.182 4.67969H228.073V12.3164H228.346C229.609 12.3164 230.482 12.0234 230.963 11.4375C231.458 10.8516 231.705 9.79688 231.705 8.27344V8.07812H235.065V20.3242L231.705 20.3047C231.679 18.5729 231.445 17.388 231.002 16.75C230.56 16.112 229.778 15.793 228.659 15.793C228.593 15.793 228.496 15.7995 228.366 15.8125C228.235 15.8255 228.138 15.832 228.073 15.832V22.1602C228.073 23.1758 228.216 23.8203 228.502 24.0938C228.802 24.3542 229.485 24.4844 230.553 24.4844H232.233V28H216.627ZM243.523 1.16406H259.128V4.67969H257.448C256.381 4.67969 255.697 4.81641 255.398 5.08984C255.111 5.35026 254.968 5.98828 254.968 7.00391V24.4844H257.077C259.109 24.4844 260.515 24.3867 261.296 24.1914C262.077 23.9961 262.715 23.6641 263.21 23.1953C263.77 22.6745 264.2 21.9453 264.499 21.0078C264.812 20.0573 265.033 18.7357 265.163 17.043H268.679V28H243.523V24.4844H245.007C246.049 24.4844 246.713 24.3542 246.999 24.0938C247.299 23.8333 247.448 23.1888 247.448 22.1602V7.00391C247.448 5.96224 247.299 5.31771 246.999 5.07031C246.713 4.8099 246.049 4.67969 245.007 4.67969H243.523V1.16406ZM270.418 28V24.4844H271.902C272.944 24.4844 273.608 24.3542 273.895 24.0938C274.194 23.8333 274.344 23.1888 274.344 22.1602V7.00391C274.344 5.96224 274.194 5.31771 273.895 5.07031C273.608 4.8099 272.944 4.67969 271.902 4.67969H270.418V1.16406H296.941V11.3984H293.426C293.204 9.83594 292.944 8.65755 292.645 7.86328C292.345 7.05599 291.948 6.42448 291.453 5.96875C290.958 5.5 290.32 5.16797 289.539 4.97266C288.758 4.77734 287.358 4.67969 285.34 4.67969H281.863V12.3164H282.527C284.012 12.3164 285.001 12.0365 285.496 11.4766C286.004 10.9167 286.258 9.78385 286.258 8.07812H289.617V20.3242L286.258 20.3047C286.219 18.4427 285.971 17.2318 285.516 16.6719C285.06 16.112 284.064 15.832 282.527 15.832H281.863V24.4844H285.457C288.4 24.4844 290.385 23.9766 291.414 22.9609C292.456 21.9453 293.126 19.9336 293.426 16.9258H296.941V28H270.418ZM322.098 17.6094H326.337C326.233 21.3073 325.178 24.1003 323.173 25.9883C321.167 27.8633 318.238 28.8008 314.384 28.8008C310.035 28.8008 306.565 27.5117 303.973 24.9336C301.395 22.3555 300.106 18.8984 300.106 14.5625C300.106 12.401 300.438 10.4674 301.102 8.76172C301.766 7.05599 302.789 5.51953 304.169 4.15234C305.497 2.85026 306.955 1.89323 308.544 1.28125C310.145 0.669271 311.981 0.363281 314.052 0.363281C315.51 0.363281 316.877 0.578125 318.153 1.00781C319.442 1.42448 320.679 2.07552 321.864 2.96094L322.665 0.832031H326.337V11.7695H322.411C322.255 9.41276 321.578 7.57682 320.38 6.26172C319.195 4.94661 317.619 4.28906 315.653 4.28906C313.505 4.28906 311.825 5.1875 310.614 6.98438C309.416 8.76823 308.817 11.2812 308.817 14.5234C308.817 17.8177 309.41 20.3568 310.595 22.1406C311.792 23.9115 313.492 24.7969 315.692 24.7969C317.567 24.7969 319.065 24.1654 320.184 22.9023C321.317 21.6263 321.955 19.862 322.098 17.6094ZM354.384 1.16406V11.5156H350.752C350.752 9.21094 350.315 7.51172 349.443 6.41797C348.584 5.3112 347.249 4.75781 345.439 4.75781H345.029V21.8086C345.029 22.7331 345.074 23.3451 345.166 23.6445C345.257 23.931 345.426 24.1133 345.673 24.1914C345.947 24.3086 346.318 24.3932 346.787 24.4453C347.255 24.4974 348.082 24.5365 349.267 24.5625V28H333.349V24.5625C334.183 24.5625 334.899 24.5365 335.498 24.4844C336.11 24.4193 336.611 24.3216 337.002 24.1914C337.236 24.1133 337.399 23.931 337.49 23.6445C337.581 23.3451 337.627 22.7461 337.627 21.8477V21.3203V4.75781H337.236C335.413 4.75781 334.059 5.3112 333.173 6.41797C332.301 7.52474 331.865 9.22396 331.865 11.5156H328.271V1.16406H354.384ZM355.245 28V24.4844H356.885C357.927 24.4844 358.591 24.3542 358.877 24.0938C359.177 23.8333 359.327 23.1888 359.327 22.1602V7.00391C359.327 5.96224 359.177 5.31771 358.877 5.07031C358.591 4.8099 357.927 4.67969 356.885 4.67969H355.245V1.16406H371.084V4.67969H369.444C368.389 4.67969 367.712 4.81641 367.413 5.08984C367.113 5.35026 366.963 5.98828 366.963 7.00391V22.1602C366.963 23.1758 367.113 23.8203 367.413 24.0938C367.712 24.3542 368.389 24.4844 369.444 24.4844H371.084V28H355.245ZM381.183 14.6016C381.183 18.2604 381.691 20.9297 382.706 22.6094C383.722 24.2891 385.336 25.1289 387.55 25.1289C389.751 25.1289 391.359 24.2891 392.374 22.6094C393.39 20.9297 393.898 18.2604 393.898 14.6016C393.898 10.9427 393.39 8.27344 392.374 6.59375C391.359 4.91406 389.751 4.07422 387.55 4.07422C385.336 4.07422 383.722 4.91406 382.706 6.59375C381.691 8.27344 381.183 10.9427 381.183 14.6016ZM372.472 14.6016C372.472 10.1745 373.806 6.69792 376.476 4.17188C379.158 1.63281 382.849 0.363281 387.55 0.363281C392.224 0.363281 395.896 1.6263 398.566 4.15234C401.248 6.67839 402.589 10.1615 402.589 14.6016C402.589 19.0286 401.254 22.5052 398.585 25.0312C395.916 27.5443 392.237 28.8008 387.55 28.8008C382.849 28.8008 379.158 27.5378 376.476 25.0117C373.806 22.4857 372.472 19.0156 372.472 14.6016ZM407.766 7.00391C407.766 5.98828 407.616 5.35026 407.316 5.08984C407.017 4.81641 406.34 4.67969 405.285 4.67969H403.879V1.16406H416.711L427.004 19.875V7.00391C427.004 5.98828 426.854 5.35026 426.555 5.08984C426.255 4.81641 425.578 4.67969 424.523 4.67969H423V1.16406H435.246V4.67969H433.996C432.941 4.67969 432.264 4.81641 431.965 5.08984C431.665 5.35026 431.516 5.98828 431.516 7.00391V28H423.273L412.277 8.03906V22.1602C412.277 23.1758 412.427 23.8203 412.727 24.0938C413.026 24.3542 413.703 24.4844 414.758 24.4844H416.281V28H403.879V24.4844H405.285C406.34 24.4844 407.017 24.3542 407.316 24.0938C407.616 23.8203 407.766 23.1758 407.766 22.1602V7.00391Z" fill="#F6F6F6"/>
</svg>
