<svg width="24" height="24" viewBox="0 0 24 24" fill="none" xmlns="http://www.w3.org/2000/svg">
<path d="M9.65126 13.346C11.8343 15.53 14.6003 16.922 16.2453 15.284L16.6443 14.885C17.1753 14.354 17.1013 13.475 16.4853 13.046C16.0963 12.775 15.6783 12.484 15.2163 12.159C14.7383 11.823 14.0823 11.874 13.6673 12.286L13.2163 12.734C12.6573 12.38 12.1043 11.925 11.5903 11.412L11.5883 11.41C11.0753 10.897 10.6203 10.343 10.2663 9.78401L10.7143 9.33301C11.1263 8.91801 11.1783 8.26101 10.8403 7.78301C10.5153 7.32201 10.2243 6.90501 9.95526 6.51701C9.52726 5.89901 8.64726 5.82401 8.11526 6.35601L7.71626 6.75501C6.07926 8.40001 7.47026 11.164 9.65326 13.349" stroke="black" stroke-linecap="round" stroke-linejoin="round"/>
<path fill-rule="evenodd" clip-rule="evenodd" d="M14 20L12 22L10 20H6C4.343 20 3 18.657 3 17V5C3 3.343 4.343 2 6 2H18C19.657 2 21 3.343 21 5V17C21 18.657 19.657 20 18 20H14Z" stroke="black" stroke-linecap="round" stroke-linejoin="round"/>
</svg>
