<svg width="296" height="59" viewBox="0 0 296 59" fill="none" xmlns="http://www.w3.org/2000/svg">
<path d="M117.564 10.2137C120.351 14.6356 119.046 16.7825 118.044 17.3032C123.235 19.0336 124.052 23.9522 123.812 26.1952C124.533 24.6331 125.038 20.6677 121.289 17.3032C121.689 16.1016 121.505 13.0015 117.564 10.2137Z" fill="#F47214"/>
<path d="M115.161 18.7452C114.36 18.4648 112.157 16.9427 109.753 13.0976C106.828 8.41632 104.928 6.69862 104.498 6.61232C104.482 6.6039 104.472 6.60311 104.466 6.60887C104.476 6.60887 104.486 6.61001 104.498 6.61232C104.695 6.72103 105.728 8.10155 108.672 13.0976C111.844 18.4808 114.319 19.1056 115.161 18.7452Z" fill="#F47214"/>
<path d="M121.649 42.1766C124.918 40.0618 126.216 36.0083 126.456 34.246C126.656 37.3301 125.254 43.8829 118.044 45.421C119.687 42.497 121.443 35.2497 117.203 31.1218C112.637 26.6758 106.269 24.6331 101.342 23.6718C102.263 23.7919 104.466 23.7919 106.389 23.7919C108.311 23.7919 111.035 23.1511 112.157 22.8306C111.796 24.3927 112.517 25.2339 113.238 25.354C114.048 25.4891 115.04 25.354 115.521 25.7145C116.162 26.1952 116.651 27.0363 116.362 28.4782C118.645 29.9202 122.899 34.6786 121.649 42.1766Z" fill="#F47214"/>
<path d="M119.126 36.8895C118.846 34.1659 115.737 28.1658 105.548 25.9548C113.43 28.8387 117.884 34.4462 119.126 36.8895Z" fill="#F47214"/>
<path d="M105.788 11.7758C109.032 17.3032 112.557 19.2258 113.719 19.2258C112.918 19.4661 110.715 19.4661 108.672 17.3032C107.878 16.4621 106.125 15.7652 104.106 16.8226C101.582 18.1444 99.9002 17.7839 99.1792 17.0629C105.668 15.621 101.642 12.0161 101.703 12.6169C101.847 14.0589 99.9613 15.6774 98.3381 14.179C96.776 12.7371 98.2179 10.9347 99.1792 10.5742C99.78 10.2137 99.0831 8.84387 97.7372 9.13226C97.2566 9.69301 96.2472 11.2711 96.055 13.0976C95.8547 12.2965 95.6464 10.3579 96.4155 9.0121C91.1284 9.73082 89.0055 6.66802 88.605 5.04677C89.4862 6.12823 92.2098 8.07029 94.4929 7.32984C98.0497 6.17629 99.6598 6.32485 101.102 6.84919C101.983 7.16962 104.058 8.50742 105.788 11.7758Z" fill="#F47214"/>
<path d="M92.0897 2.04274C97.8574 1.75436 103.225 3.68495 105.187 4.68629C103.825 3.12419 99.2993 0 92.0897 0C84.88 0 78.7518 3.60484 76.5889 5.40726C79.3526 4.40591 86.3219 2.33113 92.0897 2.04274Z" fill="#F47214"/>
<path d="M70.3405 11.5355C74.8585 6.24839 82.3967 6.04812 85.601 6.60887C73.681 8.14694 66.8558 18.3046 64.9332 23.1911C64.8531 21.5089 65.8224 16.8226 70.3405 11.5355Z" fill="#F47214"/>
<path d="M96.6558 16.3419C100.309 19.1297 105.067 18.3046 106.99 17.5435C105.347 18.8653 100.861 20.6437 96.055 17.1831C90.0469 12.8573 89.2058 12.2565 87.7639 11.7758C91.4889 11.7758 92.0897 12.8573 96.6558 16.3419Z" fill="#F47214"/>
<path d="M81.876 16.5823C88.7011 16.4861 93.6918 20.3874 95.334 22.35C91.4889 19.9468 87.7639 18.5048 81.876 18.3847C77.1656 18.2885 71.3418 20.0269 69.0187 20.9081C70.4606 19.5062 75.0508 16.6784 81.876 16.5823Z" fill="#F47214"/>
<path d="M69.0187 23.7919C79.1122 18.601 94.7733 23.9522 101.342 27.2766C94.6131 24.7532 79.2084 21.2205 71.4219 27.2766C66.6155 30.545 65.0934 37.1298 64.9332 40.0137C62.2897 31.9629 65.7743 25.7145 69.0187 23.7919Z" fill="#F47214"/>
<path d="M70.701 34.7266C78.3913 23.7679 98.5784 28.1578 107.711 31.7226C99.2593 29.7199 81.1069 28.1177 76.1082 37.7306C72.3916 45.1326 75.3607 51.2288 77.3098 53.3516C72.9039 50.5183 65.4139 42.8266 70.701 34.7266Z" fill="#F47214"/>
<path d="M82.9574 40.0137C87.4755 29.824 105.027 33.2046 113.238 36.1685C105.788 34.1258 92.9308 34.246 88.605 42.6573C85.1443 49.3863 89.4862 56.3556 92.0897 58.9992C87.1631 56.9164 78.4393 50.2034 82.9574 40.0137Z" fill="#F47214"/>
<path d="M93.6518 46.3823C93.6518 40.0137 99.9402 37.9309 103.505 37.3702C101.142 38.5718 97.3768 42.0649 97.3768 46.7427C97.3768 50.4677 98.3381 53.9524 106.389 56.8363C99.5397 57.6774 93.6518 53.7602 93.6518 46.3823Z" fill="#F47214"/>
<path d="M8.90989 10.2137C6.12215 14.6356 7.42791 16.7825 8.42925 17.3032C3.23836 19.0336 2.42115 23.9522 2.66141 26.1952C1.94046 24.6331 1.4358 20.6677 5.18483 17.3032C4.78434 16.1016 4.96865 13.0015 8.90989 10.2137Z" fill="#F47214"/>
<path d="M11.313 18.7452C12.1141 18.4648 14.317 16.9427 16.7203 13.0976C19.6461 8.41632 21.546 6.69862 21.976 6.61232C21.9913 6.6039 22.0016 6.60311 22.0074 6.60887C21.998 6.60887 21.9875 6.61001 21.976 6.61232C21.7786 6.72103 20.7458 8.10155 17.8017 13.0976C14.6295 18.4808 12.1541 19.1056 11.313 18.7452Z" fill="#F47214"/>
<path d="M4.8243 42.1766C1.55582 40.0618 0.258128 36.0083 0.0178434 34.246C-0.182348 37.3301 1.21966 43.8829 8.42925 45.421C6.787 42.497 5.03075 35.2497 9.27026 31.1218C13.8364 26.6758 20.2049 24.6331 25.1315 23.6718C24.2103 23.7919 22.0074 23.7919 20.0848 23.7919C18.1622 23.7919 15.4385 23.1511 14.317 22.8306C14.6775 24.3927 13.9565 25.2339 13.2356 25.354C12.4254 25.4891 11.4332 25.354 10.9525 25.7145C10.3117 26.1952 9.823 27.0363 10.1114 28.4782C7.82832 29.9202 3.57462 34.6786 4.8243 42.1766Z" fill="#F47214"/>
<path d="M7.34767 36.8895C7.62805 34.1659 10.7362 28.1658 20.9259 25.9548C13.0433 28.8387 8.58934 34.4462 7.34767 36.8895Z" fill="#F47214"/>
<path d="M20.6856 11.7758C17.4412 17.3032 13.9165 19.2258 12.7549 19.2258C13.556 19.4661 15.759 19.4661 17.8017 17.3032C18.5961 16.4621 20.3491 15.7652 22.3678 16.8226C24.8912 18.1444 26.5735 17.7839 27.2944 17.0629C20.8057 15.621 24.8311 12.0161 24.7711 12.6169C24.6269 14.0589 26.5123 15.6774 28.1356 14.179C29.6977 12.7371 28.2557 10.9347 27.2944 10.5742C26.6936 10.2137 27.3906 8.84387 28.7364 9.13226C29.217 9.69301 30.2264 11.2711 30.4186 13.0976C30.6189 12.2965 30.8272 10.3579 30.0582 9.0121C35.3453 9.73082 37.4681 6.66802 37.8686 5.04677C36.9875 6.12823 34.2638 8.07029 31.9807 7.32984C28.424 6.17629 26.8138 6.32485 25.3719 6.84919C24.4907 7.16962 22.4159 8.50742 20.6856 11.7758Z" fill="#F47214"/>
<path d="M34.384 2.04274C28.6162 1.75436 23.249 3.68495 21.2864 4.68629C22.6482 3.12419 27.1743 0 34.384 0C41.5936 0 47.7219 3.60484 49.8848 5.40726C47.1211 4.40591 40.1517 2.33113 34.384 2.04274Z" fill="#F47214"/>
<path d="M56.1332 11.5355C51.6151 6.24839 44.077 6.04812 40.8727 6.60887C52.7927 8.14694 59.6178 18.3046 61.5404 23.1911C61.6205 21.5089 60.6512 16.8226 56.1332 11.5355Z" fill="#F47214"/>
<path d="M29.8178 16.3419C26.1649 19.1297 21.4065 18.3046 19.484 17.5435C21.1262 18.8653 25.6122 20.6437 30.4186 17.1831C36.4267 12.8573 37.2678 12.2565 38.7098 11.7758C34.9848 11.7758 34.384 12.8573 29.8178 16.3419Z" fill="#F47214"/>
<path d="M44.5977 16.5823C37.7725 16.4861 32.7818 20.3874 31.1396 22.35C34.9848 19.9468 38.7098 18.5048 44.5977 18.3847C49.308 18.2885 55.1318 20.0269 57.4549 20.9081C56.013 19.5062 51.4228 16.6784 44.5977 16.5823Z" fill="#F47214"/>
<path d="M57.4549 23.7919C47.3614 18.601 31.7004 23.9522 25.1315 27.2766C31.8606 24.7532 47.2653 21.2205 55.0517 27.2766C59.8582 30.545 61.3802 37.1298 61.5404 40.0137C64.184 31.9629 60.6993 25.7145 57.4549 23.7919Z" fill="#F47214"/>
<path d="M55.7727 34.7266C48.0824 23.7679 27.8953 28.1578 18.763 31.7226C27.2143 29.7199 45.3667 28.1177 50.3654 37.7306C54.082 45.1326 51.1129 51.2288 49.1638 53.3516C53.5697 50.5183 61.0598 42.8266 55.7727 34.7266Z" fill="#F47214"/>
<path d="M43.5162 40.0137C38.9982 29.824 21.4466 33.2046 13.2356 36.1685C20.6856 34.1258 33.5428 34.246 37.8686 42.6573C41.3293 49.3863 36.9875 56.3556 34.384 58.9992C39.3106 56.9164 48.0343 50.2034 43.5162 40.0137Z" fill="#F47214"/>
<path d="M32.8219 46.3823C32.8219 40.0137 26.5334 37.9309 22.9686 37.3702C25.3318 38.5718 29.0969 42.0649 29.0969 46.7427C29.0969 50.4677 28.1356 53.9524 20.0848 56.8363C26.934 57.6774 32.8219 53.7602 32.8219 46.3823Z" fill="#F47214"/>
<path d="M156.381 24V22.2422H157.123C157.644 22.2422 157.976 22.1771 158.119 22.0469C158.269 21.9167 158.344 21.5944 158.344 21.0801V13.502C158.344 12.9811 158.269 12.6589 158.119 12.5352C157.976 12.4049 157.644 12.3398 157.123 12.3398H156.381V10.582H169.643V15.6992H167.885C167.774 14.918 167.644 14.3288 167.494 13.9316C167.344 13.528 167.146 13.2122 166.898 12.9844C166.651 12.75 166.332 12.584 165.941 12.4863C165.551 12.3887 164.851 12.3398 163.842 12.3398H162.104V16.1582H162.436C163.178 16.1582 163.673 16.0182 163.92 15.7383C164.174 15.4583 164.301 14.8919 164.301 14.0391H165.98V20.1621L164.301 20.1523C164.281 19.2214 164.158 18.6159 163.93 18.3359C163.702 18.056 163.204 17.916 162.436 17.916H162.104V22.2422H163.9C165.372 22.2422 166.365 21.9883 166.879 21.4805C167.4 20.9727 167.735 19.9668 167.885 18.4629H169.643V24H156.381ZM178.344 17.9355L176.996 13.6973L175.62 17.9355H178.344ZM170.297 24V22.2422H170.786C171.222 22.2422 171.541 22.1738 171.743 22.0371C171.944 21.8939 172.143 21.5293 172.338 20.9434L175.786 10.582H179.78L183.08 21.002C183.25 21.5098 183.426 21.8451 183.608 22.0078C183.797 22.1641 184.08 22.2422 184.457 22.2422H185.141V24H177.739V22.2422H178.305C178.787 22.2422 179.109 22.2096 179.272 22.1445C179.441 22.0729 179.526 21.946 179.526 21.7637C179.519 21.7051 179.496 21.6107 179.457 21.4805C179.438 21.4154 179.425 21.3665 179.418 21.334L178.901 19.6836H175.043L174.536 21.2266C174.51 21.3177 174.487 21.4121 174.467 21.5098C174.448 21.6074 174.438 21.6921 174.438 21.7637C174.438 21.946 174.506 22.0729 174.643 22.1445C174.78 22.2096 175.073 22.2422 175.522 22.2422H176.176V24H170.297ZM196.577 24.1367L196.079 23.1211C195.415 23.5508 194.731 23.8698 194.028 24.0781C193.332 24.293 192.602 24.4004 191.841 24.4004C189.79 24.4004 188.159 23.7786 186.948 22.5352C185.744 21.2852 185.141 19.599 185.141 17.4766C185.141 15.3086 185.766 13.5508 187.016 12.2031C188.273 10.8555 189.907 10.1816 191.919 10.1816C192.648 10.1816 193.332 10.2826 193.97 10.4844C194.614 10.6862 195.236 10.9987 195.835 11.4219L196.177 10.4355H198.013V15.8359H196.098C195.955 14.599 195.604 13.681 195.044 13.082C194.484 12.4831 193.69 12.1836 192.661 12.1836C191.619 12.1836 190.832 12.5938 190.298 13.4141C189.764 14.2344 189.497 15.4421 189.497 17.0371C189.497 18.9251 189.741 20.2956 190.229 21.1484C190.724 21.9948 191.505 22.418 192.573 22.418C193.341 22.418 193.872 22.291 194.165 22.0371C194.464 21.7832 194.614 21.3112 194.614 20.6211V19.6836C194.614 19.2018 194.555 18.9089 194.438 18.8047C194.321 18.694 194.061 18.6387 193.657 18.6387H192.68V16.8809H199.995V18.6387H199.282C198.924 18.6387 198.68 18.7038 198.55 18.834C198.419 18.9577 198.354 19.1921 198.354 19.5371V24.1367H196.577ZM200.103 10.582H207.905V12.3398H207.066C206.532 12.3398 206.19 12.4082 206.04 12.5449C205.897 12.6751 205.825 12.9941 205.825 13.502V22.2422H206.88C207.896 22.2422 208.599 22.1934 208.989 22.0957C209.38 21.998 209.699 21.832 209.946 21.5977C210.226 21.3372 210.441 20.9727 210.591 20.5039C210.747 20.0286 210.858 19.3678 210.923 18.5215H212.681V24H200.103V22.2422H200.845C201.366 22.2422 201.698 22.1771 201.841 22.0469C201.991 21.9167 202.066 21.5944 202.066 21.0801V13.502C202.066 12.9811 201.991 12.6589 201.841 12.5352C201.698 12.4049 201.366 12.3398 200.845 12.3398H200.103V10.582ZM213.55 24V22.2422H214.293C214.813 22.2422 215.145 22.1771 215.289 22.0469C215.438 21.9167 215.513 21.5944 215.513 21.0801V13.502C215.513 12.9811 215.438 12.6589 215.289 12.5352C215.145 12.4049 214.813 12.3398 214.293 12.3398H213.55V10.582H226.812V15.6992H225.054C224.944 14.918 224.813 14.3288 224.664 13.9316C224.514 13.528 224.315 13.2122 224.068 12.9844C223.821 12.75 223.502 12.584 223.111 12.4863C222.72 12.3887 222.02 12.3398 221.011 12.3398H219.273V16.1582H219.605C220.347 16.1582 220.842 16.0182 221.089 15.7383C221.343 15.4583 221.47 14.8919 221.47 14.0391H223.15V20.1621L221.47 20.1523C221.451 19.2214 221.327 18.6159 221.099 18.3359C220.871 18.056 220.373 17.916 219.605 17.916H219.273V22.2422H221.07C222.541 22.2422 223.534 21.9883 224.048 21.4805C224.569 20.9727 224.905 19.9668 225.054 18.4629H226.812V24H213.55ZM162.104 40.1191H163.52C164.535 40.1191 165.225 39.9889 165.59 39.7285C165.954 39.4616 166.137 38.9863 166.137 38.3027C166.137 37.5866 165.954 37.082 165.59 36.7891C165.225 36.4896 164.587 36.3398 163.676 36.3398H162.104V40.1191ZM162.104 45.0801C162.104 45.5879 162.175 45.9102 162.318 46.0469C162.468 46.1771 162.81 46.2422 163.344 46.2422H164.057V48H156.381V46.2422H157.123C157.644 46.2422 157.976 46.1771 158.119 46.0469C158.269 45.9167 158.344 45.5944 158.344 45.0801V37.502C158.344 36.9811 158.269 36.6589 158.119 36.5352C157.976 36.4049 157.644 36.3398 157.123 36.3398H156.381V34.582H165.199C166.833 34.582 168.048 34.8587 168.842 35.4121C169.643 35.959 170.043 36.7956 170.043 37.9219C170.043 38.7096 169.779 39.3639 169.252 39.8848C168.725 40.3991 167.96 40.7507 166.957 40.9395C167.816 41.0827 168.428 41.3659 168.793 41.7891C169.158 42.2057 169.34 42.8242 169.34 43.6445V44.9434C169.34 45.5033 169.382 45.8841 169.467 46.0859C169.551 46.2812 169.701 46.3789 169.916 46.3789C170.17 46.3789 170.346 46.2324 170.443 45.9395C170.548 45.64 170.6 45.0866 170.6 44.2793H171.938C171.938 44.3444 171.941 44.4355 171.947 44.5527C171.954 44.6634 171.957 44.7448 171.957 44.7969C171.957 46.0273 171.703 46.9355 171.195 47.5215C170.694 48.1074 169.91 48.4004 168.842 48.4004C167.715 48.4004 166.889 48.1237 166.361 47.5703C165.84 47.0169 165.58 46.1478 165.58 44.9629V43.6836C165.58 42.9349 165.46 42.4466 165.219 42.2188C164.984 41.9909 164.493 41.877 163.744 41.877H162.104V45.0801ZM172.055 48V46.2422H172.797C173.318 46.2422 173.65 46.1771 173.793 46.0469C173.943 45.9167 174.018 45.5944 174.018 45.0801V37.502C174.018 36.9811 173.943 36.6589 173.793 36.5352C173.65 36.4049 173.318 36.3398 172.797 36.3398H172.055V34.582H185.317V39.6992H183.559C183.448 38.918 183.318 38.3288 183.168 37.9316C183.019 37.528 182.82 37.2122 182.573 36.9844C182.325 36.75 182.006 36.584 181.616 36.4863C181.225 36.3887 180.525 36.3398 179.516 36.3398H177.778V40.1582H178.11C178.852 40.1582 179.347 40.0182 179.594 39.7383C179.848 39.4583 179.975 38.8919 179.975 38.0391H181.655V44.1621L179.975 44.1523C179.955 43.2214 179.832 42.6159 179.604 42.3359C179.376 42.056 178.878 41.916 178.11 41.916H177.778V46.2422H179.575C181.046 46.2422 182.039 45.9883 182.553 45.4805C183.074 44.9727 183.409 43.9668 183.559 42.4629H185.317V48H172.055ZM186.616 48V46.2422H187.358C187.879 46.2422 188.211 46.1771 188.354 46.0469C188.504 45.9167 188.579 45.5944 188.579 45.0801V37.502C188.579 36.9811 188.504 36.6589 188.354 36.5352C188.211 36.4049 187.879 36.3398 187.358 36.3398H186.616V34.582H199.194V40.0605H197.436C197.371 39.2077 197.261 38.5436 197.104 38.0684C196.955 37.5931 196.74 37.2253 196.46 36.9648C196.225 36.737 195.919 36.5775 195.542 36.4863C195.164 36.3887 194.448 36.3398 193.393 36.3398H192.339V40.1582H192.475C193.107 40.1582 193.543 40.0117 193.784 39.7188C194.031 39.4258 194.155 38.8984 194.155 38.1367V38.0391H195.835V44.1621L194.155 44.1523C194.142 43.2865 194.025 42.694 193.804 42.375C193.582 42.056 193.192 41.8965 192.632 41.8965C192.599 41.8965 192.55 41.8997 192.485 41.9062C192.42 41.9128 192.371 41.916 192.339 41.916V45.0801C192.339 45.5879 192.41 45.9102 192.554 46.0469C192.703 46.1771 193.045 46.2422 193.579 46.2422H194.419V48H186.616ZM200.064 34.582H207.866V36.3398H207.027C206.493 36.3398 206.151 36.4082 206.001 36.5449C205.858 36.6751 205.786 36.9941 205.786 37.502V46.2422H206.841C207.857 46.2422 208.56 46.1934 208.95 46.0957C209.341 45.998 209.66 45.832 209.907 45.5977C210.187 45.3372 210.402 44.9727 210.552 44.5039C210.708 44.0286 210.819 43.3678 210.884 42.5215H212.642V48H200.064V46.2422H200.806C201.327 46.2422 201.659 46.1771 201.802 46.0469C201.952 45.9167 202.027 45.5944 202.027 45.0801V37.502C202.027 36.9811 201.952 36.6589 201.802 36.5352C201.659 36.4049 201.327 36.3398 200.806 36.3398H200.064V34.582ZM213.511 48V46.2422H214.254C214.774 46.2422 215.106 46.1771 215.25 46.0469C215.399 45.9167 215.474 45.5944 215.474 45.0801V37.502C215.474 36.9811 215.399 36.6589 215.25 36.5352C215.106 36.4049 214.774 36.3398 214.254 36.3398H213.511V34.582H226.773V39.6992H225.015C224.905 38.918 224.774 38.3288 224.625 37.9316C224.475 37.528 224.276 37.2122 224.029 36.9844C223.782 36.75 223.463 36.584 223.072 36.4863C222.681 36.3887 221.981 36.3398 220.972 36.3398H219.234V40.1582H219.566C220.308 40.1582 220.803 40.0182 221.05 39.7383C221.304 39.4583 221.431 38.8919 221.431 38.0391H223.111V44.1621L221.431 44.1523C221.412 43.2214 221.288 42.6159 221.06 42.3359C220.832 42.056 220.334 41.916 219.566 41.916H219.234V46.2422H221.031C222.502 46.2422 223.495 45.9883 224.009 45.4805C224.53 44.9727 224.865 43.9668 225.015 42.4629H226.773V48H213.511ZM239.352 42.8047H241.471C241.419 44.6536 240.891 46.0501 239.889 46.9941C238.886 47.9316 237.421 48.4004 235.494 48.4004C233.32 48.4004 231.585 47.7559 230.289 46.4668C229 45.1777 228.355 43.4492 228.355 41.2812C228.355 40.2005 228.521 39.2337 228.854 38.3809C229.186 37.528 229.697 36.7598 230.387 36.0762C231.051 35.4251 231.78 34.9466 232.574 34.6406C233.375 34.3346 234.293 34.1816 235.328 34.1816C236.057 34.1816 236.741 34.2891 237.379 34.5039C238.023 34.7122 238.642 35.0378 239.234 35.4805L239.635 34.416H241.471V39.8848H239.508C239.43 38.7064 239.091 37.7884 238.492 37.1309C237.9 36.4733 237.112 36.1445 236.129 36.1445C235.055 36.1445 234.215 36.5938 233.609 37.4922C233.01 38.3841 232.711 39.6406 232.711 41.2617C232.711 42.9089 233.007 44.1784 233.6 45.0703C234.199 45.9557 235.048 46.3984 236.148 46.3984C237.086 46.3984 237.835 46.0827 238.395 45.4512C238.961 44.8132 239.28 43.931 239.352 42.8047ZM255.495 34.582V39.7578H253.678C253.678 38.6055 253.46 37.7559 253.024 37.209C252.594 36.6556 251.927 36.3789 251.022 36.3789H250.817V44.9043C250.817 45.3665 250.84 45.6725 250.885 45.8223C250.931 45.9655 251.015 46.0566 251.139 46.0957C251.276 46.1543 251.461 46.1966 251.696 46.2227C251.93 46.2487 252.343 46.2682 252.936 46.2812V48H244.977V46.2812C245.394 46.2812 245.752 46.2682 246.051 46.2422C246.357 46.2096 246.608 46.1608 246.803 46.0957C246.92 46.0566 247.002 45.9655 247.047 45.8223C247.093 45.6725 247.116 45.373 247.116 44.9238V44.6602V36.3789H246.92C246.009 36.3789 245.332 36.6556 244.889 37.209C244.453 37.7624 244.235 38.612 244.235 39.7578H242.438V34.582H255.495ZM255.925 48V46.2422H256.745C257.266 46.2422 257.598 46.1771 257.741 46.0469C257.891 45.9167 257.966 45.5944 257.966 45.0801V37.502C257.966 36.9811 257.891 36.6589 257.741 36.5352C257.598 36.4049 257.266 36.3398 256.745 36.3398H255.925V34.582H263.845V36.3398H263.024C262.497 36.3398 262.158 36.4082 262.009 36.5449C261.859 36.6751 261.784 36.9941 261.784 37.502V45.0801C261.784 45.5879 261.859 45.9102 262.009 46.0469C262.158 46.1771 262.497 46.2422 263.024 46.2422H263.845V48H255.925ZM268.894 41.3008C268.894 43.1302 269.148 44.4648 269.655 45.3047C270.163 46.1445 270.971 46.5645 272.077 46.5645C273.178 46.5645 273.982 46.1445 274.489 45.3047C274.997 44.4648 275.251 43.1302 275.251 41.3008C275.251 39.4714 274.997 38.1367 274.489 37.2969C273.982 36.457 273.178 36.0371 272.077 36.0371C270.971 36.0371 270.163 36.457 269.655 37.2969C269.148 38.1367 268.894 39.4714 268.894 41.3008ZM264.538 41.3008C264.538 39.0872 265.206 37.349 266.54 36.0859C267.881 34.8164 269.727 34.1816 272.077 34.1816C274.415 34.1816 276.251 34.8132 277.585 36.0762C278.926 37.3392 279.597 39.0807 279.597 41.3008C279.597 43.5143 278.93 45.2526 277.595 46.5156C276.26 47.7721 274.421 48.4004 272.077 48.4004C269.727 48.4004 267.881 47.7689 266.54 46.5059C265.206 45.2428 264.538 43.5078 264.538 41.3008ZM282.185 37.502C282.185 36.9941 282.11 36.6751 281.961 36.5449C281.811 36.4082 281.472 36.3398 280.945 36.3398H280.242V34.582H286.658L291.804 43.9375V37.502C291.804 36.9941 291.729 36.6751 291.58 36.5449C291.43 36.4082 291.091 36.3398 290.564 36.3398H289.802V34.582H295.925V36.3398H295.3C294.773 36.3398 294.435 36.4082 294.285 36.5449C294.135 36.6751 294.06 36.9941 294.06 37.502V48H289.939L284.441 38.0195V45.0801C284.441 45.5879 284.516 45.9102 284.666 46.0469C284.815 46.1771 285.154 46.2422 285.681 46.2422H286.443V48H280.242V46.2422H280.945C281.472 46.2422 281.811 46.1771 281.961 46.0469C282.11 45.9102 282.185 45.5879 282.185 45.0801V37.502Z" fill="#F47214"/>
</svg>
