<svg width="50" height="50" viewBox="0 0 50 50" fill="none" xmlns="http://www.w3.org/2000/svg">
<path fill-rule="evenodd" clip-rule="evenodd" d="M20.8316 7.28464H10.4106C8.10844 7.28464 6.24219 9.15089 6.24219 11.453V21.874C6.24219 24.1762 8.10844 26.0424 10.4106 26.0424H20.8316C23.1337 26.0424 25 24.1762 25 21.874V11.453C25 9.15089 23.1337 7.28464 20.8316 7.28464Z" stroke="black" stroke-width="2" stroke-linecap="round" stroke-linejoin="round"/>
<path d="M43.7572 25.0005H31.252" stroke="black" stroke-width="2" stroke-linecap="round" stroke-linejoin="round"/>
<path d="M43.7572 16.6636H31.252" stroke="black" stroke-width="2" stroke-linecap="round" stroke-linejoin="round"/>
<path d="M43.7572 8.32674H31.252" stroke="black" stroke-width="2" stroke-linecap="round" stroke-linejoin="round"/>
<path d="M43.7578 41.6738H6.24219" stroke="black" stroke-width="2" stroke-linecap="round" stroke-linejoin="round"/>
<path d="M43.7578 33.3369H6.24219" stroke="black" stroke-width="2" stroke-linecap="round" stroke-linejoin="round"/>
<path d="M18.4348 15.0213H15.6211" stroke="black" stroke-width="2" stroke-linecap="round" stroke-linejoin="round"/>
<path d="M15.6212 12.8327V15.0211" stroke="black" stroke-width="2" stroke-linecap="round" stroke-linejoin="round"/>
<path d="M12.8076 15.0213H15.6213" stroke="black" stroke-width="2" stroke-linecap="round" stroke-linejoin="round"/>
<path d="M18.1638 19.7108C16.579 18.6771 15.6227 16.9135 15.6211 15.0214" stroke="black" stroke-width="2" stroke-linecap="round" stroke-linejoin="round"/>
<path d="M15.6209 15.0214C15.6192 16.9135 14.663 18.6771 13.0781 19.7108" stroke="black" stroke-width="2" stroke-linecap="round" stroke-linejoin="round"/>
</svg>
