<svg width="50" height="50" viewBox="0 0 50 50" fill="none" xmlns="http://www.w3.org/2000/svg">
<path fill-rule="evenodd" clip-rule="evenodd" d="M36.5337 11.979C38.2962 11.979 39.4795 13.5311 39.4795 14.9769C39.4795 17.9103 34.5691 20.3123 34.4795 20.3123C34.3899 20.3123 29.4795 17.9103 29.4795 14.9769C29.4795 13.5311 30.6628 11.979 32.4253 11.979C33.4337 11.979 34.0962 12.4498 34.4795 12.8707C34.8628 12.4498 35.5253 11.979 36.5337 11.979V11.979Z" stroke="#323232" stroke-width="2" stroke-linecap="round" stroke-linejoin="round"/>
<path d="M34.6051 26.6561C32.9134 26.6561 31.3113 26.2832 29.8717 25.6145L22.9551 27.0832L24.403 20.154C23.7301 18.7124 23.3551 17.102 23.3551 15.4061" stroke="#323232" stroke-width="2" stroke-linecap="round" stroke-linejoin="round"/>
<path d="M34.5931 26.6436C40.7993 26.6436 45.8327 21.6123 45.8327 15.404C45.8327 9.19567 40.8014 4.1665 34.5931 4.1665C28.3848 4.1665 23.3535 9.19775 23.3535 15.4061" stroke="#323232" stroke-width="2" stroke-linecap="round" stroke-linejoin="round"/>
<path d="M17.25 39.5832H22.3333" stroke="#323232" stroke-width="2" stroke-linecap="round" stroke-linejoin="round"/>
<path d="M31.2497 26.1437V41.1458C31.2497 43.7353 29.1976 45.8333 26.6663 45.8333H12.9163C10.3851 45.8333 8.33301 43.7353 8.33301 41.1458V13.0208C8.33301 10.4312 10.3851 8.33325 12.9163 8.33325H25.8601" stroke="#323232" stroke-width="2" stroke-linecap="round" stroke-linejoin="round"/>
</svg>
