<svg width="50" height="50" viewBox="0 0 50 50" fill="none" xmlns="http://www.w3.org/2000/svg">
<path fill-rule="evenodd" clip-rule="evenodd" d="M37.6337 14.5834H12.367C11.2691 14.5834 10.3608 15.4334 10.2879 16.5271L8.62954 41.3896C8.46912 43.7938 10.3775 45.8334 12.7879 45.8334H37.2129C39.6233 45.8334 41.5316 43.7938 41.3712 41.3896L39.7129 16.5271C39.64 15.4334 38.7316 14.5834 37.6337 14.5834Z" stroke="#323232" stroke-width="2" stroke-linecap="round" stroke-linejoin="round"/>
<path d="M31.2521 18.75V10.4166V10.4166V10.4166C31.2521 6.96454 28.4542 4.16663 25.0021 4.16663H25C21.5479 4.16663 18.75 6.96454 18.75 10.4166V10.4166V10.4166V18.75" stroke="#323232" stroke-width="2" stroke-linecap="round" stroke-linejoin="round"/>
<path fill-rule="evenodd" clip-rule="evenodd" d="M25 28.198C25.4792 27.673 26.3062 27.0834 27.5667 27.0834C29.7708 27.0834 31.25 29.023 31.25 30.8292C31.25 34.6063 26.2354 37.5 25 37.5C23.7646 37.5 18.75 34.6063 18.75 30.8292C18.75 29.023 20.2292 27.0834 22.4333 27.0834C23.6937 27.0834 24.5208 27.673 25 28.198Z" stroke="#323232" stroke-width="2" stroke-linecap="round" stroke-linejoin="round"/>
</svg>
