<svg width="50" height="50" viewBox="0 0 50 50" fill="none" xmlns="http://www.w3.org/2000/svg">
<path fill-rule="evenodd" clip-rule="evenodd" d="M43.7578 16.849V39.5897C43.7578 41.8918 41.8916 43.7581 39.5894 43.7581H10.4106C8.10845 43.7581 6.24219 41.8918 6.24219 39.5897V16.849C6.2414 16.2837 6.35557 15.7243 6.57775 15.2045L9.3289 8.76643C9.9867 7.23423 11.4943 6.24146 13.1617 6.24246H36.8383C38.5072 6.24246 40.0152 7.23803 40.6711 8.77268L43.4223 15.2045C43.6441 15.7244 43.7583 16.2838 43.7578 16.849Z" stroke="black" stroke-width="2" stroke-linecap="round" stroke-linejoin="round"/>
<path d="M6.24219 16.6636H43.737" stroke="black" stroke-width="2" stroke-linecap="round" stroke-linejoin="round"/>
<path d="M29.1691 6.24246L31.2533 16.6635V23.385C31.2017 24.3247 30.4008 25.0464 29.4608 25.0003H20.5405C19.6005 25.0464 18.7996 24.3247 18.748 23.385V16.6635L20.8322 6.24246" stroke="black" stroke-width="2" stroke-linecap="round" stroke-linejoin="round"/>
<path d="M12.4961 37.5056H16.6645" stroke="black" stroke-width="2" stroke-linecap="round" stroke-linejoin="round"/>
</svg>
