<svg width="50" height="50" viewBox="0 0 50 50" fill="none" xmlns="http://www.w3.org/2000/svg">
<path d="M14.5837 20.8334V29.1667" stroke="black" stroke-width="2" stroke-linecap="round" stroke-linejoin="round"/>
<path d="M22.9167 20.8334V29.1667" stroke="black" stroke-width="2" stroke-linecap="round" stroke-linejoin="round"/>
<path d="M31.2497 20.8334V29.1667" stroke="black" stroke-width="2" stroke-linecap="round" stroke-linejoin="round"/>
<path fill-rule="evenodd" clip-rule="evenodd" d="M35.4167 37.5H10.4167C8.11458 37.5 6.25 35.6354 6.25 33.3333V16.6667C6.25 14.3646 8.11458 12.5 10.4167 12.5H35.4167C37.7187 12.5 39.5833 14.3646 39.5833 16.6667V33.3333C39.5833 35.6354 37.7187 37.5 35.4167 37.5Z" stroke="black" stroke-width="2" stroke-linecap="round" stroke-linejoin="round"/>
<path d="M39.583 18.75H41.6955C42.0184 18.75 42.3372 18.825 42.6268 18.9708L43.6393 19.4771C44.3455 19.8292 44.7913 20.5521 44.7913 21.3396V28.6604C44.7913 29.45 44.3455 30.1708 43.6393 30.5229L42.6268 31.0292C42.3372 31.175 42.0184 31.25 41.6955 31.25H39.583" stroke="black" stroke-width="2" stroke-linecap="round" stroke-linejoin="round"/>
</svg>
