<svg width="50" height="50" viewBox="0 0 50 50" fill="none" xmlns="http://www.w3.org/2000/svg">
<path d="M33.3368 41.78C41.6214 37.665 45.6676 28.1236 42.8668 19.3075C40.0661 10.4915 31.255 5.03469 22.1145 6.45542C12.974 7.87614 6.23491 15.7499 6.24219 25.0001C6.23781 30.1793 8.2957 35.147 11.9612 38.8059V38.8059C14.6888 41.5232 18.382 43.0493 22.2322 43.0493V43.0493C23.7603 43.0482 24.9989 41.8097 25 40.2815V33.3369" stroke="black" stroke-width="2" stroke-linecap="round" stroke-linejoin="round"/>
<path fill-rule="evenodd" clip-rule="evenodd" d="M32.2955 23.9583C32.2955 22.8072 31.3623 21.8741 30.2113 21.8741H19.7903C18.6392 21.8741 17.7061 22.8072 17.7061 23.9583V29.1688C17.7061 31.4709 19.5723 33.3372 21.8745 33.3372H28.1271C30.4292 33.3372 32.2955 31.4709 32.2955 29.1688V23.9583Z" stroke="black" stroke-width="2" stroke-linecap="round" stroke-linejoin="round"/>
<path d="M20.8311 21.8741V16.6636C20.8311 16.0881 21.2976 15.6215 21.8732 15.6215H28.1258C28.7013 15.6215 29.1679 16.0881 29.1679 16.6636V21.8741" stroke="black" stroke-width="2" stroke-linecap="round" stroke-linejoin="round"/>
</svg>
