<svg width="50" height="50" viewBox="0 0 50 50" fill="none" xmlns="http://www.w3.org/2000/svg">
<path fill-rule="evenodd" clip-rule="evenodd" d="M41.6667 16.6666H8.33333C7.18333 16.6666 6.25 17.6 6.25 18.75V22.9166C6.25 24.0666 7.18333 25 8.33333 25H41.6667C42.8167 25 43.75 24.0666 43.75 22.9166V18.75C43.75 17.6 42.8167 16.6666 41.6667 16.6666Z" stroke="#323232" stroke-width="2" stroke-linecap="round" stroke-linejoin="round"/>
<path d="M25.0007 43.75V16.6666" stroke="#323232" stroke-width="2" stroke-linecap="round" stroke-linejoin="round"/>
<path d="M32.6998 13.7751C30.454 16.1126 26.9186 16.6668 25.2061 16.6668" stroke="#323232" stroke-width="2" stroke-linecap="round" stroke-linejoin="round"/>
<path d="M25.2076 16.6664C25.2076 16.6664 24.1784 10.1747 26.7097 7.54138" stroke="#323232" stroke-width="2" stroke-linecap="round" stroke-linejoin="round"/>
<path d="M32.7005 13.7749C34.3547 12.0541 34.3547 9.26243 32.7005 7.5416C31.0464 5.82077 28.3651 5.82077 26.7109 7.5416" stroke="#323232" stroke-width="2" stroke-linecap="round" stroke-linejoin="round"/>
<path d="M17.2998 13.7751C19.5456 16.1126 23.0811 16.6668 24.7936 16.6668" stroke="#323232" stroke-width="2" stroke-linecap="round" stroke-linejoin="round"/>
<path d="M24.7937 16.6664C24.7937 16.6664 25.8229 10.1747 23.2916 7.54138" stroke="#323232" stroke-width="2" stroke-linecap="round" stroke-linejoin="round"/>
<path d="M17.3012 13.7749C15.647 12.0541 15.647 9.26243 17.3012 7.5416C18.9553 5.82077 21.6366 5.82077 23.2908 7.5416" stroke="#323232" stroke-width="2" stroke-linecap="round" stroke-linejoin="round"/>
<path d="M39.5837 25V41.6667C39.5837 42.8167 38.6503 43.75 37.5003 43.75H12.5003C11.3503 43.75 10.417 42.8167 10.417 41.6667V25" stroke="#323232" stroke-width="2" stroke-linecap="round" stroke-linejoin="round"/>
</svg>
