<svg width="75" height="74" viewBox="0 0 75 74" fill="none" xmlns="http://www.w3.org/2000/svg">
<g filter="url(#filter0_d)">
<rect x="15.5938" y="7" width="44" height="44" rx="9.38" fill="url(#paint0_linear)"/>
<rect x="16.0938" y="7.5" width="43" height="43" rx="8.88" stroke="white"/>
</g>
<path d="M48.9165 19.9512C49.1113 18.6927 47.9147 17.6993 46.7957 18.1906L24.5075 27.9763C23.705 28.3286 23.7637 29.5442 24.596 29.8092L29.1924 31.2729C30.0697 31.5523 31.0196 31.4078 31.7856 30.8786L42.1484 23.7192C42.4609 23.5033 42.8015 23.9476 42.5345 24.2229L35.0752 31.9135C34.3516 32.6595 34.4952 33.9237 35.3656 34.4695L43.7171 39.7067C44.6538 40.2941 45.8589 39.704 46.0341 38.5721L48.9165 19.9512Z" fill="white"/>
<defs>
<filter id="filter0_d" x="0.59375" y="0" width="74" height="74" filterUnits="userSpaceOnUse" color-interpolation-filters="sRGB">
<feFlood flood-opacity="0" result="BackgroundImageFix"/>
<feColorMatrix in="SourceAlpha" type="matrix" values="0 0 0 0 0 0 0 0 0 0 0 0 0 0 0 0 0 0 127 0" result="hardAlpha"/>
<feOffset dy="8"/>
<feGaussianBlur stdDeviation="7.5"/>
<feComposite in2="hardAlpha" operator="out"/>
<feColorMatrix type="matrix" values="0 0 0 0 0.0705882 0 0 0 0 0.0235294 0 0 0 0 0.333333 0 0 0 0.15 0"/>
<feBlend mode="normal" in2="BackgroundImageFix" result="effect1_dropShadow"/>
<feBlend mode="normal" in="SourceGraphic" in2="effect1_dropShadow" result="shape"/>
</filter>
<linearGradient id="paint0_linear" x1="37.5938" y1="7" x2="37.5938" y2="51" gradientUnits="userSpaceOnUse">
<stop stop-color="#37BBFE"/>
<stop offset="1" stop-color="#007DBB"/>
</linearGradient>
</defs>
</svg>
